<?xml version="1.0" encoding="utf-8"?>
<!-- Generator: Adobe Illustrator 16.0.0, SVG Export Plug-In . SVG Version: 6.00 Build 0)  -->
<!DOCTYPE svg PUBLIC "-//W3C//DTD SVG 1.1//EN" "http://www.w3.org/Graphics/SVG/1.1/DTD/svg11.dtd">
<svg version="1.1" id="Layer_3" xmlns="http://www.w3.org/2000/svg" xmlns:xlink="http://www.w3.org/1999/xlink" x="0px" y="0px"
	 width="250px" height="250px" viewBox="0 0 250 250" enable-background="new 0 0 250 250" xml:space="preserve">
<g>
	<path fill="#C1C2C6" d="M197.443,36.188c0-19.825-2.947-36.111,21.677-35.899c23.793,0.206,20.526,16.153,21.672,35.899H197.443z"
		/>
	<path fill="#E9EAEA" d="M8.963,23.35c0,0-1.89-22.012,20.966-22.956c22.853-0.943,184.709,0.104,184.709,0.104
		s-15.6,2.588-17.223,22.852C195.795,43.61,8.963,23.35,8.963,23.35z"/>
	<rect x="8.963" y="23.35" fill="#E9EAEA" width="188.48" height="226.65"/>
	<rect x="22.195" y="75.643" fill="#808080" width="157.857" height="6.125"/>
	<rect x="22.197" y="96.896" fill="#808080" width="157.854" height="6.126"/>
	<rect x="22.195" y="116.753" fill="#808080" width="157.857" height="6.129"/>
	<rect x="22.195" y="136.372" fill="#808080" width="157.857" height="6.128"/>
	<g>
		<path fill="#FBAE17" d="M161.148,89.753c0,0-3.928-4.406-8.412-3.646c-4.98,0.844-34.004,34.609-34.631,35.705
			c-3.078,5.365,3.072,7,5.573,4.659c1.427-1.34,4.249-4.65,4.249-4.65l-1.7-1.206c0,0,26.379-29.021,27.391-29.851
			c2.281-1.87,4.854,0.734,4.854,0.734L161.148,89.753z"/>
		<polygon points="179.784,106.954 178.172,108.859 145.547,147.307 144.639,148.383 143.404,149.837 121.822,130.756 
			123.121,129.363 124.075,128.342 158.471,91.5 158.544,91.424 160.202,89.647 160.375,89.797 160.67,90.063 160.701,90.094 
			179.535,106.732 		"/>
		<polygon fill="#FBAE17" points="121.822,130.754 114.777,138.723 136.678,158.085 143.404,149.836 		"/>
		<polygon fill="#FBAE17" points="91.782,174.277 102.959,184.659 91.8,192.234 84.855,186.094 		"/>
		<polygon fill="#EFCF78" points="84.971,186.193 65.639,214.939 68.037,215.439 69.646,213.618 89.911,203.546 91.8,192.234 		"/>
		<polygon points="136.676,158.084 135.536,158.984 134.415,159.863 105.456,182.684 104.337,183.572 102.959,184.654 
			91.599,174.602 91.58,174.591 93.299,171.932 113.223,141.131 114.78,138.727 		"/>
		<path d="M179.784,106.954l-0.249-0.222l-18.834-16.638l-0.326-0.297l-0.173-0.15c0,0,0.146-0.091,0.407-0.253
			c0.037-0.014,0.061-0.033,0.101-0.058c2.104-1.214,10.349-5.336,17.077,0.339c6.695,5.674,3.324,14.405,2.271,16.705
			C179.891,106.753,179.784,106.954,179.784,106.954z"/>
		
			<rect x="156.902" y="97.427" transform="matrix(0.7564 0.6542 -0.6542 0.7564 105.8188 -86.9854)" width="25.564" height="2.276"/>
		<path fill="#FBAE17" d="M160.323,88.986l-0.03-0.031l-0.141-0.126l-2.012,2.285l-0.039,0.048l0.424,0.371l19.646,17.325
			l1.612-1.905c0,0,0.105-0.201,0.273-0.574l-0.123-0.115L160.805,89.4l-0.041-0.03L160.323,88.986z"/>
		<polygon fill="#FBAE17" points="113.994,139.941 135.536,158.984 134.415,159.863 113.223,141.131 		"/>
		<polygon fill="#FBAE17" points="145.547,147.307 144.639,148.383 123.121,129.363 124.075,128.342 		"/>
		<polygon fill="#FBAE17" points="105.456,182.684 104.337,183.572 92.525,173.13 93.299,171.932 		"/>
	</g>
	<rect x="24.56" y="217.968" fill="#808080" width="73.46" height="5.7"/>
</g>
<g id="Layer_2">
	<text transform="matrix(1 0 0 1 43.6562 51.873)" fill="#E14B33" font-family="'MyriadPro-Bold'" font-size="24">CONTRACT</text>
</g>
</svg>
