<?xml version="1.0" encoding="utf-8"?>
<!-- Generator: Adobe Illustrator 16.0.0, SVG Export Plug-In . SVG Version: 6.00 Build 0)  -->
<!DOCTYPE svg PUBLIC "-//W3C//DTD SVG 1.1//EN" "http://www.w3.org/Graphics/SVG/1.1/DTD/svg11.dtd">
<svg version="1.1" id="Layer_3" xmlns="http://www.w3.org/2000/svg" xmlns:xlink="http://www.w3.org/1999/xlink" x="0px" y="0px"
	 width="250px" height="250px" viewBox="0 0 250 250" enable-background="new 0 0 250 250" xml:space="preserve">
<g>
	<path fill="#C1C2C6" d="M197.443,36.188c0-19.825-2.947-36.111,21.677-35.899c23.793,0.206,20.526,16.153,21.672,35.899H197.443z"
		/>
	<path fill="#E9EAEA" d="M8.963,23.35c0,0-1.89-22.012,20.966-22.956c22.853-0.943,184.71,0.104,184.71,0.104
		s-15.6,2.588-17.223,22.852C195.795,43.61,8.963,23.35,8.963,23.35z"/>
	<rect x="8.963" y="23.35" fill="#E9EAEA" width="188.48" height="226.65"/>
	<rect x="22.195" y="75.643" fill="#808080" width="157.857" height="6.125"/>
	<rect x="22.197" y="96.896" fill="#808080" width="157.854" height="6.126"/>
	<rect x="22.195" y="116.753" fill="#808080" width="157.857" height="6.129"/>
	<rect x="22.195" y="136.372" fill="#808080" width="157.857" height="6.128"/>
	<g display="none">
		<path display="inline" fill="#FBAE17" d="M161.149,89.753c0,0-3.929-4.406-8.413-3.646c-4.98,0.844-34.004,34.609-34.631,35.705
			c-3.078,5.365,3.072,7.001,5.573,4.659c1.427-1.34,4.249-4.65,4.249-4.65l-1.7-1.206c0,0,26.378-29.02,27.39-29.851
			c2.282-1.87,4.854,0.734,4.854,0.734L161.149,89.753z"/>
		<polygon display="inline" points="179.784,106.954 178.172,108.859 145.547,147.306 144.639,148.383 143.404,149.837 
			121.822,130.756 123.121,129.363 124.075,128.342 158.471,91.5 158.544,91.424 160.202,89.647 160.375,89.797 160.67,90.063 
			160.701,90.094 179.535,106.732 		"/>
		<polygon display="inline" fill="#FBAE17" points="121.822,130.754 114.777,138.722 136.678,158.085 143.404,149.836 		"/>
		<polygon display="inline" fill="#FBAE17" points="91.782,174.278 102.959,184.659 91.8,192.234 84.855,186.094 		"/>
		<polygon display="inline" fill="#EFCF78" points="84.971,186.194 65.639,214.94 68.037,215.44 69.646,213.618 89.911,203.546 
			91.8,192.234 		"/>
		<polygon display="inline" points="136.676,158.084 135.536,158.985 134.415,159.863 105.456,182.683 104.337,183.572 
			102.959,184.654 91.599,174.602 91.58,174.591 93.299,171.932 113.223,141.131 114.78,138.726 		"/>
		<path display="inline" d="M179.784,106.954l-0.249-0.222l-18.834-16.638l-0.326-0.297l-0.173-0.15c0,0,0.146-0.091,0.407-0.253
			c0.037-0.014,0.061-0.033,0.101-0.058c2.105-1.214,10.349-5.336,17.077,0.339c6.695,5.674,3.325,14.405,2.271,16.705
			C179.891,106.753,179.784,106.954,179.784,106.954z"/>
		
			<rect x="156.904" y="97.439" transform="matrix(-0.7564 -0.6542 0.6542 -0.7564 233.545 284.1371)" display="inline" width="25.563" height="2.276"/>
		<path display="inline" fill="#FBAE17" d="M160.323,88.986l-0.03-0.031l-0.14-0.126l-2.012,2.285l-0.04,0.048l0.424,0.371
			l19.646,17.325l1.612-1.905c0,0,0.106-0.201,0.274-0.574l-0.123-0.115L160.805,89.4l-0.042-0.03L160.323,88.986z"/>
		<polygon display="inline" fill="#FBAE17" points="113.994,139.942 135.536,158.985 134.415,159.863 113.223,141.131 		"/>
		<polygon display="inline" fill="#FBAE17" points="145.547,147.306 144.639,148.383 123.121,129.363 124.075,128.342 		"/>
		<polygon display="inline" fill="#FBAE17" points="105.456,182.683 104.337,183.572 92.525,173.13 93.299,171.932 		"/>
	</g>
	<rect x="24.56" y="217.968" fill="#808080" width="73.46" height="5.7"/>
	<g>
		
			<linearGradient id="SVGID_1_" gradientUnits="userSpaceOnUse" x1="64.4629" y1="164.5059" x2="22.8515" y2="143.3038" gradientTransform="matrix(0.9884 0.1521 -0.1521 0.9884 97.6284 -9.327)">
			<stop  offset="0" style="stop-color:#FFFFFF"/>
			<stop  offset="0.24" style="stop-color:#FFFFFF"/>
			<stop  offset="0.51" style="stop-color:#E7E7E7"/>
			<stop  offset="1" style="stop-color:#BDBDBD"/>
		</linearGradient>
		<path fill-rule="evenodd" clip-rule="evenodd" fill="url(#SVGID_1_)" d="M86.128,202.52c-0.658,0.291-1.373,0.399-1.923,0.09
			c-1.372-0.767-0.383-2.47,0.329-3.578c1.223-1.904-0.626-1.911-1.646-2.11c-1.989,0.473-2.767,0.199-5.41-0.791
			c2.697,0.617,3.309,0.709,5.103-0.105c-0.121-0.274-1.852-0.959-0.669-0.978c2.223-0.041,1.706-1.171,0.574-1.957
			c-2.666,0.158-2.81-0.488-5.918-2.596c3.775,2.192,5.006,2.669,5.903,1.062c-0.345-1.075-4.174-2.958-2.588-2.754
			c5.423,0.698-0.705-4.607,0.305-3.843c7.333,5.548-5.4-10.491,0.206-5.237c0.392,0.367,4.961,4.65,4.087,2.198
			c-0.378-1.06-3.317-6.934-3.258-6.921c0.697,0.127,4.842,7.668,4.63,6.896c-4.182-15.354-0.694-14.342,0.557-11.422
			c-2.336-1.669-0.776,1.348,1.239,6.486c2.168-8.113,2.432-11.491-3.493-13.578c3.197,0.34,3.588,0.167,6.496,4.247
			c1.319-3.705,0.18-5.498-3.324-8.418c2.513,1.257,3.116,1.725,4.759,4.552c3.981-10.318,10.636-24.407,20.774-36.554
			c0.698,0.494,1.963,1.438,2.967,2.004c-1.007-1.996-1.866-3.398-0.078-5.311c5.544-5.931,18.877-15.708,26.697-18.605
			c0.348,5.452,0.924,5.978,2.93,11.884c-0.912-5.172-1.529-6.627-1.396-12.331c0.867-0.233,1.74-0.432,2.619-0.598
			c-0.479,5.855-0.83,7.025,0.6,13.736c-0.291-5.771,0.021-8.198,1.225-14.023c3.695-0.471,7.471-0.271,11.277,0.845
			c2.512,0.739,4.615,1.608,6.355,2.604c-39.186,23.794-59.654,59.35-80.83,94.46L86.128,202.52z"/>
		
			<linearGradient id="SVGID_2_" gradientUnits="userSpaceOnUse" x1="36.3447" y1="151.2695" x2="80.9093" y2="169.2748" gradientTransform="matrix(0.9884 0.1521 -0.1521 0.9884 97.6284 -9.327)">
			<stop  offset="0" style="stop-color:#808080"/>
			<stop  offset="0.4663" style="stop-color:#D5D5D5"/>
			<stop  offset="1" style="stop-color:#F2F2F2"/>
		</linearGradient>
		<path fill-rule="evenodd" clip-rule="evenodd" fill="url(#SVGID_2_)" d="M106.099,191.412c0.57,0.566,9.409,2.552,8.758,2.42
			c-2.414-0.486-10.116-0.265-12.512-0.918c-2.399-0.656,7.352,3.487,3.336,2.252c-3.472-1.065-13.431-2.074-6.507,1.502
			c3.676,1.899-3.115-0.793,0.169,1.919c4.454,3.684-5.367-2.988-3.505,0c1.563,2.514-4.969-1.539-2.92,0.417
			c4.421,4.088-6.005-2.506,0.751,2.335c-1.166-0.169-2.335-0.504-3.754-1.668c-0.862-0.243-1.476,0.369-2.035,1.416
			c-0.251,0.473-0.959,1.084-1.752,1.433l-0.901-0.646c21.176-35.11,41.644-70.666,80.83-94.46
			c10.318,5.892,7.66,16.026-0.645,27.27c-7.801-1.329-16.807-2.634-25.562-2.202c7.172,0.5,17.158,1.676,24.516,3.589
			c-0.438,0.563-0.887,1.129-1.344,1.698c-1.576,1.256-2.953,1.5-5.42,1.658c1.311,0.378,2.338,0.471,3.291,0.873
			C140.98,163.308,103.297,188.644,106.099,191.412z"/>
		<g>
			<path fill="#808080" d="M122.27,172.851c-2.707-0.375-6.017-1.501-9.032-2.198c-3.071-0.71-5.841-0.971-7.355,0.472
				c1.811-1.018,4.475-0.758,7.303-0.139c3.118,0.687,6.438,1.814,9.04,2.162c1.631,0.218,2.981,0.131,3.822-0.565
				C125.07,173.031,123.762,173.057,122.27,172.851z"/>
			<path fill="#808080" d="M122.39,172.079c-2.77-0.486-6.061-1.615-9.023-2.267c-2.921-0.643-5.521-0.825-6.968,0.533
				c1.721-0.957,4.227-0.767,6.918-0.204c3.059,0.642,6.357,1.765,9.028,2.235c1.936,0.342,3.542,0.341,4.481-0.44
				C125.714,172.44,124.156,172.39,122.39,172.079z"/>
			<path fill="#808080" d="M122.756,169.695c-2.936-0.729-6.191-1.871-9.002-2.386c-2.419-0.442-4.507-0.423-5.77,0.728
				c1.432-0.775,3.463-0.749,5.714-0.366c2.902,0.493,6.174,1.577,9.018,2.282c2.838,0.704,5.251,1.037,6.446,0.04
				C127.6,170.653,125.299,170.331,122.756,169.695z"/>
			<path fill="#808080" d="M122.505,171.336c-2.84-0.578-6.106-1.74-9.008-2.367c-2.742-0.59-5.157-0.704-6.575,0.603
				c1.633-0.889,3.978-0.76,6.523-0.26c3.004,0.593,6.291,1.703,9.021,2.268c2.24,0.469,4.102,0.57,5.125-0.281
				C126.297,171.863,124.507,171.744,122.505,171.336z"/>
			<path fill="#808080" d="M122.885,168.858c-2.983-0.789-6.24-1.916-9.006-2.367c-2.248-0.368-4.174-0.291-5.37,0.776
				c1.343-0.717,3.217-0.732,5.313-0.41c2.858,0.435,6.126,1.496,9.022,2.258c3.133,0.819,5.825,1.29,7.089,0.234
				C128.244,170.041,125.684,169.6,122.885,168.858z"/>
			<path fill="#808080" d="M122.629,170.522c-2.889-0.658-6.15-1.81-9.004-2.384c-2.584-0.52-4.839-0.565-6.178,0.659
				c1.54-0.829,3.728-0.755,6.126-0.317c2.954,0.542,6.232,1.637,9.019,2.281c2.544,0.591,4.679,0.806,5.789-0.118
				C126.951,171.259,124.906,171.044,122.629,170.522z"/>
			<path fill="#808080" d="M123.412,165.43c-3.184-0.935-6.464-1.96-9.046-2.105c-1.541-0.084-2.833,0.142-3.704,0.891
				c0.964-0.49,2.219-0.624,3.649-0.535c2.678,0.168,5.962,1.121,9.062,2.005c4.269,1.219,8.187,2.307,9.697,1.028
				C130.932,167.549,127.244,166.555,123.412,165.43z"/>
			<path fill="#808080" d="M123.545,164.565c-3.238-0.961-6.531-1.956-9.062-2.004c-1.353-0.023-2.487,0.223-3.276,0.891
				c0.866-0.435,1.97-0.585,3.226-0.545c2.627,0.084,5.92,1.01,9.073,1.914c4.53,1.299,8.776,2.562,10.348,1.227
				C131.596,166.92,127.615,165.771,123.545,164.565z"/>
			<path fill="#808080" d="M123.678,163.7c-3.294-0.98-6.602-1.943-9.08-1.882c-1.163,0.029-2.142,0.285-2.852,0.867
				c0.774-0.379,1.729-0.538,2.802-0.543c2.593-0.014,5.891,0.88,9.094,1.806c4.784,1.382,9.352,2.836,10.989,1.438
				C132.252,166.289,127.979,164.98,123.678,163.7z"/>
			<path fill="#808080" d="M123.148,167.146c-3.078-0.876-6.341-1.952-9.022-2.262c-1.899-0.219-3.506-0.053-4.546,0.846
				c1.163-0.596,2.725-0.683,4.49-0.485c2.776,0.305,6.047,1.309,9.042,2.142c3.716,1.036,7.007,1.81,8.378,0.659
				C129.574,168.797,126.469,168.089,123.148,167.146z"/>
			<path fill="#808080" d="M123.28,166.292c-3.13-0.909-6.401-1.967-9.031-2.197c-1.721-0.151-3.167,0.051-4.127,0.878
				c1.064-0.542,2.474-0.657,4.069-0.519c2.73,0.235,6.006,1.211,9.054,2.07c4.001,1.13,7.605,2.061,9.041,0.853
				C130.232,168.172,126.848,167.329,123.28,166.292z"/>
			<path fill="#808080" d="M123.016,168.013c-3.032-0.84-6.288-1.948-9.012-2.333c-2.075-0.295-3.839-0.171-4.961,0.814
				c1.258-0.649,2.977-0.706,4.904-0.453c2.822,0.369,6.09,1.399,9.034,2.2c3.43,0.934,6.416,1.555,7.732,0.454
				C128.887,169.422,126.064,168.854,123.016,168.013z"/>
			<path fill="#808080" d="M111.81,179.938c-4.273-0.845-9.092-2.774-11.403-0.169c3.001-1.998,7.521-0.255,11.35,0.514
				c2.131,0.425,4.051,0.549,5.377-0.447C115.688,180.49,113.81,180.331,111.81,179.938z"/>
			<path fill="#808080" d="M111.686,180.739c-4.327-0.724-9.36-2.917-11.746-0.174c3.135-2.127,7.833-0.126,11.692,0.523
				c1.843,0.311,3.495,0.312,4.695-0.593C115.035,181.084,113.416,181.027,111.686,180.739z"/>
			<path fill="#808080" d="M111.452,182.272c-4.427-0.327-9.895-3.159-12.442-0.097c3.394-2.418,8.486,0.223,12.387,0.45
				c1.266,0.073,2.41-0.109,3.329-0.801C113.761,182.266,112.643,182.36,111.452,182.272z"/>
			<path fill="#808080" d="M123.814,162.83c-3.367-1-6.695-1.924-9.105-1.736c-0.969,0.076-1.792,0.332-2.405,0.837
				c0.665-0.324,1.464-0.487,2.36-0.529c2.535-0.12,5.85,0.737,9.108,1.68c4.749,1.369,9.38,2.911,11.327,1.85
				c0.119-0.063,0.227-0.134,0.324-0.219c-0.098,0.038-0.201,0.069-0.305,0.099C132.57,165.528,128.162,164.119,123.814,162.83z"/>
			<path fill="#808080" d="M98.094,183.777c3.733-2.721,9.238,0.739,13.1,0.166c0.705-0.104,1.356-0.342,1.933-0.78
				c-0.586,0.271-1.221,0.414-1.886,0.469C106.776,184.008,100.856,180.388,98.094,183.777z"/>
			<path fill="#808080" d="M112.192,177.451c-4.042-1.001-8.259-2.295-10.333-0.069c2.638-1.673,6.619-0.512,10.285,0.399
				c2.985,0.743,5.758,1.324,7.418,0.066C117.699,178.697,114.988,178.145,112.192,177.451z"/>
			<path fill="#808080" d="M139.287,137.727c2.834,0.635,5.748,1.523,7.877,2.072c3.287,0.845,11.592,3.202,13.002,1.279
				c-1.863,1.576-10.391-0.837-13.812-1.728c-1.83-0.474-4.447-1.269-7.029-1.851c-3.277-0.74-6.502-1.146-7.996-0.141
				C133.094,136.629,136.143,137.021,139.287,137.727z"/>
			<path fill="#808080" d="M112.322,176.608c-3.947-1.006-7.972-2.126-9.978-0.021c2.529-1.562,6.342-0.562,9.927,0.344
				c3.27,0.83,6.352,1.585,8.101,0.258C118.382,178.095,115.375,177.387,112.322,176.608z"/>
			<path fill="#808080" d="M112.718,174.038c-3.611-0.93-7.08-1.609-8.876,0.201c2.211-1.312,5.518-0.693,8.825,0.135
				c3.492,0.878,6.979,1.995,9.167,1.325c0.363-0.113,0.691-0.271,0.977-0.49c-0.292,0.133-0.608,0.23-0.949,0.297
				C119.49,175.968,116.043,174.897,112.718,174.038z"/>
			<path fill="#808080" d="M112.979,172.341c-3.354-0.832-6.465-1.284-8.122,0.335c2.011-1.16,4.989-0.732,8.07,0.006
				c3.26,0.782,6.629,1.918,9.08,1.895c0.982-0.01,1.813-0.205,2.433-0.683c-0.668,0.309-1.481,0.423-2.392,0.401
				C119.48,174.238,116.125,173.122,112.979,172.341z"/>
			<path fill="#808080" d="M112.584,174.906c-3.736-0.969-7.388-1.784-9.246,0.12c2.311-1.397,5.787-0.664,9.196,0.204
				c3.671,0.937,7.27,2.028,9.249,0.782c0.075-0.046,0.146-0.095,0.216-0.148c-0.069,0.033-0.135,0.062-0.205,0.088
				C119.552,176.823,116.032,175.802,112.584,174.906z"/>
			<path fill="#808080" d="M122.156,173.59c-2.642-0.233-5.97-1.357-9.049-2.097c-3.217-0.772-6.158-1.126-7.744,0.407
				c1.911-1.088,4.733-0.747,7.692-0.06c3.179,0.733,6.514,1.863,9.057,2.042c1.297,0.091,2.387-0.064,3.142-0.652
				C124.429,173.617,123.364,173.695,122.156,173.59z"/>
			<path fill="#808080" d="M112.453,175.759c-3.843-0.993-7.681-1.955-9.613,0.049c2.424-1.48,6.064-0.62,9.563,0.274
				c3.542,0.904,6.937,1.846,8.778,0.439C119.07,177.49,115.758,176.614,112.453,175.759z"/>
			<path fill="#808080" d="M136.395,156.521c-3.592-0.945-7.678-2.352-11.133-3.096c-2.945-0.634-5.434-0.787-6.776,0.229
				c1.557-0.695,3.98-0.512,6.733,0.052c3.543,0.729,7.635,2.091,11.143,3.028c3.568,0.951,6.527,1.461,7.691,0.412
				C142.428,157.844,139.609,157.365,136.395,156.521z"/>
			<path fill="#808080" d="M137.602,148.683c-4.176-1.203-8.379-2.387-11.246-2.372c-1.125,0.007-2.045,0.199-2.675,0.648
				c0.707-0.305,1.604-0.425,2.638-0.414c3,0.035,7.164,1.205,11.246,2.38c5.928,1.708,11.686,3.429,13.459,1.714
				C148.916,151.977,143.287,150.317,137.602,148.683z"/>
			<path fill="#808080" d="M138.006,146.069c-4.5-1.261-8.84-2.343-11.33-1.83c-0.49,0.101-0.909,0.262-1.243,0.493
				c0.352-0.149,0.76-0.251,1.213-0.312c2.672-0.365,6.949,0.691,11.32,1.897c6.703,1.856,13.621,4.08,15.279,2.114
				C151.084,149.998,144.389,147.855,138.006,146.069z"/>
			<path fill="#808080" d="M137.465,149.56c-4.094-1.182-8.268-2.401-11.225-2.507c-1.334-0.047-2.423,0.135-3.141,0.649
				c0.813-0.348,1.873-0.462,3.104-0.404c3.076,0.142,7.221,1.337,11.229,2.494c5.693,1.646,11.117,3.218,12.826,1.585
				C148.168,152.633,142.893,151.13,137.465,149.56z"/>
			<path fill="#808080" d="M136.928,153.055c-3.82-1.097-7.922-2.428-11.164-2.898c-2.157-0.316-3.93-0.25-4.984,0.516
				c1.199-0.523,2.929-0.523,4.938-0.232c3.329,0.48,7.426,1.766,11.176,2.838c4.689,1.342,8.834,2.348,10.258,1.028
				C145.213,155.243,141.252,154.298,136.928,153.055z"/>
			<path fill="#808080" d="M137.334,150.426c-4.018-1.16-8.172-2.4-11.211-2.609c-1.545-0.106-2.802,0.053-3.605,0.629
				c0.914-0.396,2.141-0.486,3.566-0.379c3.146,0.239,7.273,1.459,11.213,2.598c5.459,1.579,10.557,3.003,12.189,1.447
				C147.457,153.283,142.51,151.924,137.334,150.426z"/>
			<path fill="#808080" d="M137.062,152.177c-3.883-1.116-8.004-2.413-11.179-2.808c-1.962-0.245-3.563-0.145-4.525,0.557
				c1.102-0.479,2.663-0.514,4.484-0.285c3.265,0.41,7.371,1.672,11.187,2.767c4.953,1.423,9.412,2.563,10.893,1.183
				C145.941,154.574,141.668,153.501,137.062,152.177z"/>
			<path fill="#808080" d="M137.736,147.812c-4.264-1.221-8.498-2.376-11.271-2.219c-0.911,0.051-1.662,0.242-2.205,0.621
				c0.597-0.254,1.332-0.376,2.171-0.399c2.92-0.085,7.105,1.047,11.268,2.234c6.164,1.76,12.266,3.636,14.088,1.844
				C149.666,151.338,143.678,149.513,137.736,147.812z"/>
			<path fill="#808080" d="M145.049,140.816c-1.598-0.424-3.766-1.082-5.984-1.63c-3.564-0.88-7.258-1.476-8.918-0.36
				c1.967-0.811,5.436-0.257,8.881,0.585c2.484,0.604,4.955,1.36,6.842,1.858c3.293,0.867,11.5,3.212,12.941,1.301
				C156.924,144.102,148.457,141.719,145.049,140.816z"/>
			<path fill="#808080" d="M138.137,145.201c-4.66-1.281-9.08-2.32-11.371-1.564c-0.281,0.094-0.533,0.214-0.746,0.363
				c0.221-0.094,0.465-0.166,0.725-0.226c2.521-0.565,6.857,0.445,11.355,1.677c6.893,1.885,14.166,4.273,15.857,2.251
				C151.766,149.307,144.717,147.013,138.137,145.201z"/>
			<path fill="#808080" d="M144.395,141.536c-1.461-0.396-3.422-0.983-5.463-1.503c-3.701-0.938-7.666-1.636-9.375-0.468
				c1.846-0.771,5.365-0.21,9.334,0.741c7.861,1.891,17.473,5.318,19.242,3.002C156.16,144.894,147.875,142.474,144.395,141.536z"/>
			<path fill="#808080" d="M143.068,142.99c-1.209-0.33-2.756-0.793-4.398-1.239c-3.928-1.062-8.418-2.001-10.293-0.715
				c2.014-0.839,5.938-0.12,10.252,0.968c7.592,1.917,16.398,4.994,18.127,2.782C154.748,146.35,146.557,143.938,143.068,142.99z"/>
			<path fill="#808080" d="M142.41,143.713c-1.08-0.297-2.428-0.701-3.873-1.1c-4.02-1.105-8.809-2.17-10.752-0.84
				c2.354-0.977,6.752-0.013,10.715,1.074c1.734,0.475,3.387,0.973,4.746,1.341c3.318,0.9,11.291,3.243,12.814,1.325
				C154.021,147.088,145.922,144.684,142.41,143.713z"/>
			<path fill="#808080" d="M135.633,161.474c-3.195-0.46-7.342-1.916-11.154-2.97c-3.926-1.082-7.499-1.73-9.308-0.411
				c-0.029,0.021-0.058,0.041-0.086,0.062c0.026-0.014,0.055-0.023,0.082-0.034c2.098-0.919,5.573-0.319,9.269,0.649
				c3.943,1.035,8.134,2.484,11.16,2.954c1.709,0.263,3.049,0.214,3.76-0.405C138.404,161.682,137.121,161.686,135.633,161.474z"/>
			<path fill="#808080" d="M136.795,153.929c-3.764-1.065-7.861-2.413-11.156-2.964c-2.362-0.393-4.312-0.374-5.434,0.453
				c1.284-0.567,3.185-0.529,5.388-0.172c3.379,0.551,7.475,1.854,11.168,2.896c4.42,1.25,8.264,2.129,9.609,0.888
				C144.506,155.892,140.842,155.073,136.795,153.929z"/>
			<path fill="#808080" d="M135.881,159.886c-3.354-0.675-7.461-2.133-11.14-3.095c-3.65-0.953-6.881-1.418-8.53-0.144
				c1.906-0.874,5.054-0.427,8.488,0.421c3.787,0.936,7.926,2.359,11.145,3.041c2.344,0.497,4.201,0.604,5.074-0.166
				C139.705,160.416,137.934,160.297,135.881,159.886z"/>
			<path fill="#808080" d="M135.756,160.682c-3.279-0.575-7.404-2.029-11.146-3.033c-3.829-1.031-7.256-1.589-8.957-0.248
				c1.994-0.924,5.324-0.4,8.917,0.516c3.859,0.985,8.019,2.426,11.148,3.012c2.027,0.381,3.623,0.402,4.414-0.295
				C139.051,161.049,137.529,160.994,135.756,160.682z"/>
			<path fill="#808080" d="M123.944,161.963c-3.437-1.014-6.792-1.9-9.127-1.568c-0.778,0.11-1.443,0.355-1.961,0.775
				c0.551-0.266,1.197-0.42,1.917-0.488c2.472-0.229,5.805,0.588,9.134,1.533c4.47,1.274,8.927,2.778,11.259,2.292
				c0.424-0.088,0.775-0.239,1.045-0.47c-0.305,0.113-0.643,0.192-1.008,0.238C132.463,164.628,128.145,163.198,123.944,161.963z"/>
			<path fill="#808080" d="M135.404,162.97c-3.012-0.146-7.219-1.601-11.189-2.744c-3.628-1.042-7.058-1.825-9.2-1.115
				c-0.399,0.13-0.752,0.311-1.053,0.553c0.31-0.148,0.652-0.258,1.02-0.338c2.314-0.513,5.706,0.204,9.191,1.159
				c4.153,1.135,8.442,2.606,11.192,2.744c1.059,0.054,1.889-0.091,2.398-0.53C137.113,162.938,136.312,163.013,135.404,162.97z"/>
			<path fill="#808080" d="M124.08,161.098c-3.53-1.029-6.92-1.867-9.159-1.367c-0.589,0.133-1.098,0.355-1.509,0.691
				c0.434-0.211,0.927-0.35,1.468-0.434c2.397-0.365,5.759,0.41,9.163,1.368c4.282,1.204,8.634,2.699,11.216,2.564
				c0.736-0.037,1.33-0.208,1.736-0.557c-0.488,0.183-1.059,0.271-1.695,0.287C132.41,163.723,128.152,162.285,124.08,161.098z"/>
			<path fill="#808080" d="M135.516,162.244c-3.115-0.312-7.285-1.776-11.169-2.879c-3.751-1.062-7.233-1.789-9.246-0.812
				c-0.207,0.1-0.401,0.217-0.577,0.354c0.176-0.081,0.362-0.153,0.557-0.212c2.22-0.695,5.646-0.032,9.225,0.928
				c4.039,1.087,8.269,2.551,11.171,2.872c1.385,0.152,2.469,0.046,3.082-0.487C137.752,162.314,136.713,162.363,135.516,162.244z"
				/>
			<path fill="#808080" d="M136.662,154.791c-3.707-1.033-7.795-2.404-11.149-3.02c-2.55-0.471-4.678-0.502-5.886,0.387
				c1.386-0.604,3.456-0.523,5.841-0.098c3.44,0.613,7.528,1.936,11.159,2.949c4.143,1.154,7.686,1.904,8.975,0.726
				C143.799,156.538,140.428,155.839,136.662,154.791z"/>
			<path fill="#808080" d="M136.529,155.659c-3.65-0.993-7.734-2.384-11.141-3.065c-2.749-0.551-5.053-0.64-6.33,0.312
				c1.466-0.65,3.713-0.52,6.285-0.023c3.489,0.672,7.581,2.014,11.153,2.99c3.857,1.055,7.107,1.682,8.328,0.572
				C143.107,157.191,140.016,156.606,136.529,155.659z"/>
			<path fill="#808080" d="M136.135,158.216c-3.475-0.833-7.564-2.265-11.131-3.122c-3.308-0.791-6.165-1.086-7.66,0.06
				c1.731-0.788,4.513-0.485,7.614,0.224c3.661,0.834,7.768,2.229,11.141,3.062c2.967,0.73,5.363,1.024,6.383,0.116
				C141.057,159.135,138.771,158.848,136.135,158.216z"/>
			<path fill="#808080" d="M136.006,159.06c-3.418-0.759-7.512-2.21-11.133-3.121c-3.473-0.875-6.514-1.253-8.096-0.042
				c1.821-0.827,4.783-0.455,8.053,0.324c3.723,0.886,7.846,2.295,11.139,3.059c2.66,0.617,4.783,0.814,5.723-0.022
				C140.361,159.777,138.344,159.581,136.006,159.06z"/>
			<path fill="#808080" d="M136.264,157.379c-3.537-0.893-7.621-2.319-11.13-3.123c-3.126-0.717-5.797-0.939-7.218,0.15
				c1.64-0.743,4.24-0.502,7.174,0.135c3.598,0.781,7.699,2.158,11.143,3.046c3.268,0.841,5.943,1.241,7.033,0.267
				C141.721,158.49,139.18,158.115,136.264,157.379z"/>
		</g>
		
			<linearGradient id="SVGID_3_" gradientUnits="userSpaceOnUse" x1="58.5308" y1="139.6025" x2="37.8328" y2="129.0564" gradientTransform="matrix(0.9884 0.1521 -0.1521 0.9884 97.6284 -9.327)">
			<stop  offset="0" style="stop-color:#FFFFFF"/>
			<stop  offset="0.51" style="stop-color:#EDEDED"/>
			<stop  offset="1" style="stop-color:#D3D3D3"/>
		</linearGradient>
		<path fill-rule="evenodd" clip-rule="evenodd" fill="url(#SVGID_3_)" d="M134.482,112.182c-0.07,2.142,1.014,4.015,0.717,5.916
			c-0.133-1.111-0.547-2.114-0.912-3.406c-0.557-1.952,0.059,1.371,0.141,1.88c0.162,0.996,0.916,3.446-0.051,0.955
			c-0.221-0.563-0.396-1.198-0.668-1.748c-0.975-1.964-0.395,0.048-0.209,1.035c0.188,1.012,0.42,1.742-0.047,0.301
			c-0.221-0.679-0.014,0.604-0.006,0.654c0.594,3.444-1.428-3.358-1.334-2.43c0.266,2.647,1.039,5.373-0.395,0.525
			c-0.781-2.642-0.115,2.75-0.023,3.266c0.119,0.695-1.186-1.834-1.438-2.242c-0.678-1.086,0.371,2.518,0.48,2.961
			c0.207,0.838-2.951-5.777-2.391-3.237c0.18,0.806,2.105,6.768,0.291,3.102c-0.191-0.385-1.83-3.4-2.02-3.288
			c-0.068,0.039,1.078,3.426,1.189,3.994c0.609,3.232,0.359,2.541-0.562,0.192c-0.045-0.117-0.613-1.405-0.543-0.698
			c0.076,0.719,0.482,2.098,0.156,2.707c0.066-0.405-0.244-1.213-0.488-1.655c-0.291-0.532,0.043,2.61-0.309,1.227
			c-0.464-1.817-0.251-0.386-0.596,0.259c0.329-2.109-0.597,0.605-0.749,0.335c-0.229-0.403-2.554-5.039-1.825-3.019
			c1.209,3.336,2.208,6.458,3.152,9.626c-0.167-0.275-0.374-0.626-0.619-1.069c-0.185-0.321-0.367-0.642-0.554-0.956
			c-1.444-2.929-2.882-5.872-3.991-8.235c-0.279,0.233-0.554,0.468-0.824,0.7c0.436,2.077,0.952,4.211,1.205,4.508
			c-1.244-1.069-1.81-2.213-2.565-3.307l-0.257,0.232c0.538,1.031,1.262,2.422,1.635,3.327c0.52,1.258-1.448-1.711-2.202-2.804
			l-0.078,0.076c0.939,1.991,3.072,5.988,0.982,3.069c-3.825-5.346,0.992,2.302-0.738,0.822c-2.043-1.752-2.647-3.334-0.611,1.06
			c0.501,1.081-1.119-1.662-1.825-2.75l-0.046,0.051l-0.002,0.002l0,0l-0.046,0.056c1.137,2.564,0.244,1.65-0.536,0.826
			c-0.658,1.401,0.049,2.618,0.856,4.209c-1.003-0.565-2.269-1.51-2.967-2.004l-0.011,0.014l0.157,0.299
			c0.546,1.529,2.271,4.387,2.833,5.882c2.49,6.659-0.312,1.632-3.604-3.716c0.47,1.373,2.717,7.358,2.538,8.154
			c-0.125,0.555-4.018-6.004-3.525-4.824c0.604,1.448,3.993,10.75,6.798,18.424c0.158-0.189,0.318-0.381,0.478-0.573
			c3.453-4.454,6.959-9.062,10.712-13.218l0.01,0.013c3.561-3.428,6.387-6.147,11.68-11.245c-2.016-4.323-4.643-10.128-4.615-11.304
			c-0.121,0.781,0.178,4.615,0.455,5.654C137.689,124.246,134.395,112.134,134.482,112.182z"/>
		
			<linearGradient id="SVGID_4_" gradientUnits="userSpaceOnUse" x1="19.4878" y1="235.9863" x2="64.8134" y2="111.4553" gradientTransform="matrix(0.9884 0.1521 -0.1521 0.9884 97.6284 -9.327)">
			<stop  offset="0" style="stop-color:#77787B"/>
			<stop  offset="1" style="stop-color:#FFFFFF"/>
		</linearGradient>
		<path fill-rule="evenodd" clip-rule="evenodd" fill="url(#SVGID_4_)" d="M153.482,116.083
			c-29.97,17.705-63.323,71.377-78.46,100.571c-1.787,3.44-2.625,4.908-2.091,5.216l0.022,0.008c1.774-1.935,3.935-3.302,6.189-3.98
			C94.39,188.583,124.963,136.585,153.482,116.083z"/>
		<path fill-rule="evenodd" clip-rule="evenodd" fill="#4D4D4D" d="M78.928,217.963c15.672-31.866,34.622-60.893,56.263-86.164
			c-22.396,25.088-41.41,54.646-57.817,86.783C77.884,218.341,78.402,218.132,78.928,217.963z"/>
		<path fill-rule="evenodd" clip-rule="evenodd" fill="#FFFFFF" d="M73.221,221.541c-0.018,0.036-0.034,0.072-0.05,0.106
			c0.51-0.534,1.05-1.021,1.614-1.463c15.533-31.905,35.757-61.71,57.534-86.296C109.147,158.498,89.725,188.149,73.221,221.541z"/>
	</g>
</g>
<g id="Layer_2">
	<text transform="matrix(1 0 0 1 26.1538 51.873)" fill="#E14B33" font-family="'MyriadPro-Bold'" font-size="24">DECLARATION</text>
</g>
</svg>
