<?xml version="1.0" encoding="utf-8"?>
<!-- Generator: Adobe Illustrator 15.0.0, SVG Export Plug-In . SVG Version: 6.00 Build 0)  -->
<!DOCTYPE svg PUBLIC "-//W3C//DTD SVG 1.1//EN" "http://www.w3.org/Graphics/SVG/1.1/DTD/svg11.dtd">
<svg version="1.1" id="Layer_1" xmlns="http://www.w3.org/2000/svg" xmlns:xlink="http://www.w3.org/1999/xlink" x="0px" y="0px"
	 width="64px" height="64px" viewBox="0 0 64 64" style="enable-background:new 0 0 64 64;" xml:space="preserve">
<style type="text/css">
<![CDATA[
	.st0{fill:#EFE6FF;}
	.st1{fill:url(#SVGID_1_);}
]]>
</style>
<g id="distributed_1_">
	<linearGradient id="SVGID_1_" gradientUnits="userSpaceOnUse" x1="13.8608" y1="16.9019" x2="50.1408" y2="53.1818">
		<stop  offset="0" style="stop-color:#E68CBC"/>
		<stop  offset="1" style="stop-color:#8366B3"/>
	</linearGradient>
	<path class="st1" d="M14.679,54L5.442,38l17.32-30h18.476l17.32,30l-9.237,16H14.679z M44.702,50l-4.619-8l-4.619,8H44.702z
		 M28.536,50l-4.619-8l-4.619,8H28.536z M48.166,48l4.619-8h-9.238L48.166,48z M32,48l4.619-8h-9.238L32,48z M15.834,48l4.619-8
		h-9.237L15.834,48z M52.785,36l-4.619-8l-4.619,8H52.785z M36.619,36L32,28l-4.619,8H36.619z M20.453,36l-4.619-8l-4.619,8H20.453z
		 M40.083,34l4.619-8h-9.238L40.083,34z M23.917,34l4.619-8h-9.237L23.917,34z M44.702,22l-4.619-8l-4.619,8H44.702z M28.536,22
		l-4.619-8l-4.619,8H28.536z M32,20l4.619-8h-9.238L32,20z"/>
	<path class="st0" d="M19.836,24c0,2.209-1.791,4-4,4s-4-1.791-4-4s1.791-4,4-4S19.836,21.791,19.836,24z M23.918,34
		c-2.209,0-4,1.791-4,4s1.791,4,4,4s4-1.791,4-4S26.127,34,23.918,34z M15.836,48c-2.209,0-4,1.791-4,4s1.791,4,4,4s4-1.791,4-4
		S18.045,48,15.836,48z M23.918,6c-2.209,0-4,1.791-4,4s1.791,4,4,4s4-1.791,4-4S26.127,6,23.918,6z M32,20c-2.209,0-4,1.791-4,4
		s1.791,4,4,4s4-1.791,4-4S34.209,20,32,20z M40.082,34c-2.209,0-4,1.791-4,4s1.791,4,4,4s4-1.791,4-4S42.291,34,40.082,34z M32,48
		c-2.209,0-4,1.791-4,4s1.791,4,4,4s4-1.791,4-4S34.209,48,32,48z M40.082,6c-2.209,0-4,1.791-4,4s1.791,4,4,4s4-1.791,4-4
		S42.291,6,40.082,6z M48.164,20c-2.209,0-4,1.791-4,4s1.791,4,4,4s4-1.791,4-4S50.373,20,48.164,20z M56.246,34
		c-2.209,0-4,1.791-4,4s1.791,4,4,4s4-1.791,4-4S58.455,34,56.246,34z M48.164,48c-2.209,0-4,1.791-4,4s1.791,4,4,4s4-1.791,4-4
		S50.373,48,48.164,48z M7.754,34c-2.209,0-4,1.791-4,4s1.791,4,4,4s4-1.791,4-4S9.963,34,7.754,34z"/>
</g>
</svg>
