<?xml version="1.0" encoding="utf-8"?>
<!-- Generator: Adobe Illustrator 16.0.0, SVG Export Plug-In . SVG Version: 6.00 Build 0)  -->
<!DOCTYPE svg PUBLIC "-//W3C//DTD SVG 1.1//EN" "http://www.w3.org/Graphics/SVG/1.1/DTD/svg11.dtd">
<svg version="1.1" xmlns="http://www.w3.org/2000/svg" xmlns:xlink="http://www.w3.org/1999/xlink" x="0px" y="0px" width="120px"
	 height="40px" viewBox="0 0 120 40" enable-background="new 0 0 120 40" xml:space="preserve">
<g id="Layer_1">
	<text transform="matrix(1 0 0 1 4 27.626)" font-family="'MyriadPro-It'" font-size="19">Ether</text>
</g>
<g id="Layer_2">
	<text transform="matrix(1 0 0 1 45.812 28.0405)"><tspan x="0" y="0" font-family="'BrushScriptMT'" font-size="27.6788">S</tspan><tspan x="17.881" y="0" font-family="'BrushScriptMT'" font-size="21.528">ign</tspan></text>
</g>
<g id="Layer_3">
	<g>
		<g>
			<path d="M69.419,33.316c-0.083-0.107-0.193-0.184-0.303-0.242c-0.11-0.06-0.223-0.103-0.341-0.136
				c-0.237-0.064-0.493-0.093-0.813-0.081c-0.087,0.003-0.217,0.011-0.378,0.025l-0.261,0.027l-0.212,0.031l-0.241,0.037
				c-0.163,0.029-0.328,0.062-0.497,0.1c-0.338,0.078-0.688,0.175-1.042,0.311c-0.177,0.068-0.354,0.146-0.531,0.25
				c-0.088,0.054-0.177,0.111-0.264,0.193c-0.043,0.041-0.086,0.088-0.124,0.149c-0.038,0.062-0.073,0.144-0.072,0.241
				c-0.006,0.092,0.051,0.202,0.071,0.234c0.029,0.05,0.064,0.102,0.102,0.146c0.077,0.093,0.172,0.17,0.272,0.23
				c0.201,0.118,0.418,0.17,0.627,0.197c0.419,0.05,0.82,0.008,1.208-0.051c0.774-0.122,1.5-0.327,2.167-0.515
				c0.667-0.188,1.274-0.368,1.792-0.498c0.517-0.132,0.943-0.209,1.231-0.224c0.29-0.018,0.419,0.027,0.419,0.026
				c-0.001,0,0.034,0.006,0.089,0.029c0.057,0.023,0.12,0.062,0.145,0.126c0.031,0.065,0.021,0.22-0.044,0.408
				c-0.062,0.19-0.167,0.408-0.267,0.674c-0.047,0.135-0.102,0.28-0.108,0.478c-0.001,0.096,0.016,0.217,0.087,0.325
				c0.071,0.109,0.18,0.179,0.276,0.216c0.197,0.074,0.377,0.077,0.555,0.075c0.178-0.004,0.354-0.023,0.531-0.051
				c0.351-0.055,0.709-0.127,1.075-0.234c0.362-0.104,0.72-0.229,1.081-0.338c0.72-0.226,1.466-0.367,2.18-0.229
				c0.366,0.061,0.72,0.149,1.064,0.253l0.511,0.159l0.253,0.077l0.236,0.068c0.407,0.113,0.757,0.164,0.931,0.182
				c0.322,0.032,0.577,0.017,0.811-0.023c0.236-0.041,1.194-0.726,1.445-0.82c-0.532-0.072-1.617,0.5-2.212,0.44
				c-0.161-0.019-0.481-0.064-0.868-0.172l-0.227-0.066l-0.249-0.076l-0.517-0.159c-0.354-0.106-0.728-0.2-1.113-0.265
				c-0.388-0.072-0.81-0.077-1.208-0.025c-0.401,0.051-0.788,0.152-1.158,0.267c-0.371,0.112-0.728,0.235-1.075,0.337
				c-0.344,0.101-0.692,0.171-1.023,0.224c-0.166,0.024-0.327,0.042-0.48,0.046c-0.15,0.004-0.299-0.009-0.396-0.046
				c-0.048-0.021-0.073-0.041-0.085-0.06c-0.013-0.021-0.022-0.052-0.021-0.1c0.001-0.098,0.04-0.225,0.083-0.342
				c0.089-0.238,0.198-0.465,0.271-0.688c0.07-0.219,0.123-0.458,0.035-0.686c-0.043-0.11-0.119-0.194-0.186-0.246
				c-0.069-0.053-0.129-0.082-0.178-0.104c-0.096-0.039-0.147-0.048-0.147-0.049c0,0-0.212-0.06-0.541-0.037
				c-0.331,0.018-0.779,0.101-1.308,0.234c-0.528,0.132-1.139,0.312-1.803,0.5c-0.662,0.187-1.38,0.387-2.119,0.504
				c-0.367,0.055-0.744,0.092-1.093,0.048c-0.175-0.021-0.339-0.065-0.471-0.143c-0.064-0.04-0.121-0.086-0.167-0.141
				c-0.042-0.046-0.094-0.15-0.079-0.122c-0.005,0.008,0.017-0.047,0.07-0.094c0.051-0.048,0.12-0.095,0.191-0.137
				c0.146-0.087,0.307-0.158,0.47-0.222c0.327-0.126,0.662-0.218,0.985-0.292c0.162-0.036,0.321-0.068,0.477-0.096l0.23-0.038
				l0.204-0.026l0.249-0.028c0.151-0.015,0.274-0.021,0.356-0.024c0.301-0.015,0.535-0.023,0.756-0.029
				c0.111-0.003,0.219-0.004,0.331,0.004C69.179,33.247,69.296,33.261,69.419,33.316z"/>
		</g>
	</g>
	<g>
		<g>
			<path d="M110.033,6.801c0,0-0.144,0.113-0.41,0.326c-0.268,0.212-0.654,0.528-1.158,0.918c-0.506,0.385-1.097,0.884-1.78,1.446
				c-0.688,0.554-1.433,1.222-2.262,1.927c-0.414,0.352-0.823,0.744-1.261,1.136c-0.216,0.196-0.438,0.396-0.661,0.599
				c-0.219,0.209-0.442,0.421-0.667,0.636c-0.45,0.429-0.914,0.868-1.368,1.339c-0.459,0.466-0.935,0.934-1.392,1.434
				c-0.231,0.247-0.468,0.496-0.703,0.747c-0.229,0.258-0.457,0.517-0.688,0.778c-0.469,0.517-0.913,1.066-1.375,1.606
				c-0.898,1.102-1.792,2.24-2.623,3.423c-0.845,1.173-1.652,2.376-2.439,3.572c-0.784,1.195-1.568,2.373-2.39,3.479
				c-0.818,1.106-1.704,2.121-2.65,2.974c-0.94,0.86-1.955,1.525-2.927,2.048c-0.481,0.274-0.967,0.48-1.426,0.687
				c-0.462,0.194,0.759-0.773,1.214-1.061c0.925-0.549,1.875-1.23,2.758-2.083c0.889-0.85,1.711-1.856,2.499-2.954
				c0.787-1.096,1.531-2.289,2.315-3.486c0.781-1.201,1.588-2.42,2.436-3.612c0.848-1.19,1.759-2.339,2.679-3.449
				c0.467-0.547,0.926-1.095,1.41-1.608c0.238-0.26,0.476-0.518,0.713-0.775c0.242-0.249,0.482-0.497,0.723-0.742
				c0.473-0.497,0.957-0.965,1.437-1.418c0.471-0.46,0.953-0.891,1.421-1.308c0.231-0.21,0.462-0.417,0.689-0.621
				c0.231-0.197,0.462-0.391,0.687-0.581c0.456-0.376,0.884-0.753,1.315-1.089c0.858-0.679,1.641-1.303,2.365-1.818
				c0.719-0.524,1.338-0.988,1.866-1.344c0.521-0.365,0.938-0.641,1.22-0.834C109.883,6.903,110.033,6.801,110.033,6.801z"/>
			<path d="M89.649,28.562c0.494-1.928,1.284-3.612,1.794-5.537l1.524-5.776l0.052-0.196l0.196,0.066l1.218,0.408l-0.269,0.182
				c0.027-0.59,0.063-1.175,0.123-1.766c0.031-0.296,0.062-0.588,0.13-0.897c0.021-0.08,0.036-0.155,0.082-0.255
				c0.014-0.025,0.039-0.068,0.048-0.08l0.03-0.045l0.063-0.09l0.251-0.361c0.67-0.96,1.333-1.933,2.094-2.851
				c0.756-0.917,1.634-1.762,2.627-2.436c0.991-0.679,2.056-1.223,3.137-1.704c1.083-0.479,2.185-0.902,3.295-1.296
				c1.108-0.394,2.226-0.762,3.345-1.116c0.56-0.174,1.087-0.361,1.613-0.591c0.522-0.229,1.029-0.49,1.512-0.787
				c0.482-0.298,0.939-0.632,1.362-1.002c0.212-0.186,0.415-0.38,0.605-0.583c0.096-0.103,0.188-0.207,0.278-0.313l0.133-0.163
				l0.066-0.086L115,1.238l0.028-0.033l0.027-0.029l0.032-0.028c0.007-0.008,0.086-0.06,0.134-0.069l0.528-0.107l-0.057,0.495
				c-0.062,0.564-0.174,1.076-0.305,1.601c-0.132,0.52-0.287,1.031-0.463,1.536c-0.351,1.01-0.789,1.985-1.291,2.925
				c-0.257,0.467-0.521,0.931-0.812,1.378c-0.283,0.45-0.59,0.886-0.907,1.313c-0.638,0.853-1.338,1.658-2.09,2.411
				c-0.183,0.192-0.38,0.372-0.573,0.554c-0.19,0.186-0.391,0.361-0.592,0.535c-0.394,0.355-0.812,0.685-1.234,1.005l-0.642,0.471
				l-0.656,0.448l-0.319,0.22c-0.099,0.077-0.192,0.145-0.286,0.227c-0.191,0.158-0.363,0.337-0.529,0.521
				c-0.324,0.376-0.592,0.802-0.807,1.259s-0.384,0.941-0.527,1.439c-0.145,0.496-0.264,1.005-0.41,1.517
				c-0.146,0.506-0.324,1.04-0.632,1.5l-0.032,0.049l-0.044,0.024l-4.752,2.556l-0.128-0.35l3.048-0.644l0.74-0.157l-0.59,0.454
				c-0.096,0.072-0.189,0.151-0.285,0.22l-0.295,0.193c-0.198,0.119-0.399,0.234-0.604,0.342c-0.203,0.106-0.41,0.211-0.616,0.311
				s-0.414,0.195-0.624,0.289c-0.836,0.376-1.682,0.719-2.54,1.04l-0.076-0.268l3.116-0.619l0.312-0.062l-0.181,0.254
				c-0.11,0.155-0.227,0.279-0.348,0.41c-0.125,0.124-0.249,0.248-0.382,0.361c-0.13,0.118-0.27,0.223-0.406,0.33
				c-0.137,0.109-0.283,0.204-0.425,0.306c-0.144,0.097-0.293,0.185-0.44,0.278c-0.148,0.092-0.304,0.168-0.455,0.254
				c-0.15,0.087-0.309,0.155-0.466,0.232c-0.155,0.074-0.312,0.15-0.474,0.212l-0.479,0.195l-0.491,0.169
				c-0.164,0.058-0.327,0.11-0.495,0.153l-0.499,0.139c-0.166,0.049-0.336,0.077-0.504,0.117l-0.505,0.11l-1.02,0.167l1.012-0.204
				l0.499-0.128c0.166-0.046,0.335-0.08,0.498-0.135l0.491-0.155c0.164-0.049,0.326-0.108,0.484-0.17l0.483-0.182l0.469-0.207
				c0.158-0.064,0.311-0.145,0.462-0.222c0.152-0.078,0.308-0.151,0.454-0.241c0.146-0.087,0.297-0.168,0.438-0.261
				c0.142-0.096,0.286-0.187,0.425-0.285c0.136-0.103,0.277-0.198,0.407-0.308s0.263-0.215,0.384-0.334
				c0.128-0.112,0.244-0.234,0.36-0.355c0.11-0.126,0.225-0.258,0.31-0.386l0.132,0.192l-3.111,0.645L95.8,26.393
				c0.846-0.328,1.685-0.681,2.507-1.062c0.206-0.095,0.411-0.193,0.612-0.293c0.205-0.1,0.404-0.205,0.603-0.312
				c0.197-0.107,0.391-0.223,0.581-0.339l0.274-0.185c0.089-0.064,0.169-0.135,0.255-0.2l0.149,0.296l-3.041,0.676l-1.289,0.287
				l1.16-0.637l4.732-2.587l-0.076,0.073c0.27-0.422,0.417-0.9,0.551-1.401c0.133-0.5,0.242-1.014,0.38-1.527
				c0.137-0.513,0.301-1.027,0.522-1.523c0.222-0.497,0.505-0.973,0.857-1.398c0.178-0.21,0.367-0.413,0.575-0.595
				c0.103-0.092,0.218-0.183,0.325-0.267l0.324-0.235l0.633-0.452l0.616-0.473c0.208-0.155,0.4-0.328,0.6-0.492
				c0.203-0.161,0.397-0.332,0.589-0.504c0.194-0.171,0.387-0.343,0.571-0.525c0.186-0.179,0.377-0.354,0.553-0.543
				c0.727-0.736,1.398-1.523,2.011-2.354c0.306-0.416,0.599-0.841,0.872-1.279c0.277-0.434,0.53-0.885,0.774-1.338
				c0.479-0.913,0.895-1.858,1.226-2.833c0.166-0.486,0.312-0.98,0.434-1.478c0.119-0.493,0.225-1.011,0.274-1.488l0.473,0.387
				c0.043-0.007,0.119-0.057,0.121-0.062c0.009-0.006,0.016-0.013,0.022-0.019l0.008-0.01l-0.007,0.01l-0.028,0.037l-0.068,0.087
				l-0.144,0.178c-0.099,0.118-0.199,0.233-0.304,0.345c-0.208,0.225-0.428,0.438-0.658,0.639c-0.459,0.401-0.952,0.756-1.469,1.072
				c-0.515,0.315-1.054,0.59-1.606,0.829c-0.548,0.237-1.127,0.441-1.688,0.611c-1.117,0.343-2.229,0.699-3.331,1.08
				c-1.102,0.381-2.193,0.789-3.258,1.25c-1.061,0.461-2.096,0.981-3.046,1.619c-0.473,0.322-0.93,0.665-1.356,1.045
				c-0.428,0.379-0.827,0.792-1.206,1.225c-0.759,0.87-1.444,1.817-2.139,2.761l-0.259,0.354l-0.065,0.088l-0.032,0.044
				c-0.014,0.018-0.005,0.009-0.01,0.015c-0.018,0.032-0.038,0.1-0.053,0.162c-0.063,0.263-0.101,0.554-0.135,0.84
				c-0.066,0.575-0.111,1.158-0.147,1.738l-0.017,0.27l-0.251-0.089l-1.211-0.428l0.247-0.13l-1.691,5.729
				C91.083,24.992,90.228,26.656,89.649,28.562z"/>
		</g>
	</g>
</g>
</svg>
