<?xml version="1.0" encoding="utf-8"?>
<!-- Generator: Adobe Illustrator 16.0.0, SVG Export Plug-In . SVG Version: 6.00 Build 0)  -->
<!DOCTYPE svg PUBLIC "-//W3C//DTD SVG 1.1//EN" "http://www.w3.org/Graphics/SVG/1.1/DTD/svg11.dtd">
<svg version="1.1" xmlns="http://www.w3.org/2000/svg" xmlns:xlink="http://www.w3.org/1999/xlink" x="0px" y="0px" width="250px"
	 height="250px" viewBox="0 0 250 250" enable-background="new 0 0 250 250" xml:space="preserve">
<g id="Layer_2">
	<g>
		<path fill="#C1C2C6" d="M195.443,35.154c0-19.259-2.862-35.079,21.055-34.874c23.117,0.2,19.944,15.69,21.061,34.874H195.443z"/>
		<path fill="#E9EAEA" d="M12.342,22.682c0,0-1.835-21.382,20.365-22.3c22.203-0.915,179.441,0.1,179.441,0.1
			s-15.153,2.516-16.729,22.2C193.842,42.366,12.342,22.682,12.342,22.682z"/>
		<rect x="12.342" y="22.682" fill="#E9EAEA" width="183.101" height="227.184"/>
		<rect x="25.197" y="73.483" fill="#808080" width="153.352" height="5.952"/>
		<rect x="25.2" y="94.13" fill="#808080" width="153.349" height="5.951"/>
		<rect x="25.197" y="113.422" fill="#808080" width="153.352" height="5.953"/>
		<polygon fill="#282956" points="164.682,250 164.872,210.133 161.798,210.117 161.618,247.283 		"/>
		<polygon fill="#282956" points="136.757,209.998 136.563,249.867 139.803,246.9 139.98,210.014 		"/>
		<polygon fill="#282956" points="140.649,210.016 140.475,246.15 150.534,236.947 160.804,246.523 160.979,210.113 		"/>
		<polygon fill="#FFFFFF" points="161.798,210.117 160.979,210.113 160.848,237.664 161.662,238.242 		"/>
		<polygon fill="#FFFFFF" points="139.98,210.014 139.803,246.9 140.475,246.15 140.649,210.016 		"/>
		<rect x="39.501" y="205.307" fill="#808080" width="51.6" height="9.381"/>
		<rect x="25.197" y="151.07" fill="#808080" width="153.352" height="5.951"/>
		<rect x="25.197" y="132.479" fill="#808080" width="153.352" height="5.955"/>
		<g>
			<g>
				<path fill="#9C1C1F" d="M116.209,171.168c0.198-4.006,2.708-7.58,6.403-9.104c3.179-1.314,7.128-5.256,8.452-8.436
					c1.06-2.553,3.059-4.543,5.625-5.604c2.569-1.061,5.391-1.062,7.942,0c3.181,1.318,8.757,1.326,11.939,0.012
					c2.555-1.057,5.376-1.049,7.942,0.016c2.567,1.066,4.56,3.061,5.616,5.617c1.314,3.18,5.255,7.127,8.434,8.449
					c4.036,1.676,6.6,5.742,6.384,10.117c-0.06,1.188-0.32,2.35-0.779,3.453c-0.532,1.281-0.878,3.035-0.968,4.938h-0.003
					c-0.127,2.619,0.23,5.236,0.96,7.002c0.582,1.422,0.847,2.92,0.769,4.453c-0.197,4.004-2.711,7.58-6.403,9.104
					c-3.179,1.314-7.128,5.254-8.452,8.434c-2.192,5.287-8.283,7.801-13.569,5.605c-3.177-1.32-8.757-1.326-11.937-0.012
					c-5.293,2.184-11.374-0.342-13.559-5.631c-1.314-3.182-5.256-7.131-8.435-8.453c-4.035-1.674-6.598-5.74-6.382-10.113
					c0.06-1.188,0.32-2.35,0.778-3.455c0.531-1.281,0.874-3.035,0.971-4.939c0.131-2.619-0.228-5.236-0.959-7
					C116.392,174.199,116.131,172.703,116.209,171.168z"/>
			</g>
			<g>
				<path fill="none" stroke="#FFFFFF" stroke-width="3.0595" stroke-miterlimit="10" d="M121.457,171.998
					c0.166-3.395,2.297-6.422,5.424-7.713c2.696-1.115,6.039-4.453,7.161-7.146c0.899-2.164,2.59-3.852,4.77-4.748
					c2.173-0.898,4.565-0.9,6.726,0c2.693,1.119,7.422,1.123,10.118,0.008c2.162-0.895,4.555-0.889,6.729,0.016
					c2.173,0.904,3.861,2.592,4.757,4.758c1.111,2.695,4.45,6.041,7.145,7.16c3.418,1.42,5.592,4.863,5.408,8.57
					c-0.051,1.006-0.27,1.992-0.66,2.926c-0.453,1.086-0.743,2.57-0.822,4.184l0,0c-0.107,2.219,0.195,4.438,0.813,5.932
					c0.497,1.205,0.716,2.473,0.651,3.771c-0.166,3.395-2.295,6.424-5.424,7.715c-2.696,1.113-6.042,4.453-7.161,7.146
					c-1.859,4.48-7.017,6.609-11.495,4.75c-2.694-1.119-7.422-1.123-10.116-0.01c-4.484,1.852-9.636-0.291-11.488-4.773
					c-1.113-2.695-4.452-6.041-7.145-7.162c-3.417-1.418-5.592-4.861-5.408-8.57c0.047-1.004,0.269-1.986,0.66-2.922
					c0.45-1.086,0.743-2.572,0.823-4.188c0.109-2.217-0.196-4.434-0.814-5.932C121.614,174.566,121.392,173.299,121.457,171.998z"/>
			</g>
			<path fill="none" stroke="#FFFFFF" stroke-width="0.7594" stroke-miterlimit="10" d="M119.598,171.434
				c0.178-3.613,2.445-6.83,5.773-8.205c2.866-1.184,6.427-4.738,7.618-7.605c0.952-2.299,2.756-4.092,5.07-5.049
				c2.312-0.955,4.855-0.955,7.155,0c2.866,1.191,7.896,1.195,10.768,0.012c2.301-0.953,4.84-0.945,7.155,0.012
				c2.312,0.961,4.109,2.76,5.062,5.062c1.181,2.867,4.736,6.428,7.603,7.619c3.636,1.51,5.944,5.174,5.752,9.115
				c-0.054,1.074-0.291,2.117-0.705,3.113c-0.477,1.156-0.787,2.734-0.873,4.451l0,0c-0.116,2.359,0.207,4.717,0.864,6.311
				c0.53,1.281,0.764,2.629,0.692,4.008c-0.174,3.613-2.438,6.838-5.77,8.213c-2.865,1.184-6.427,4.736-7.617,7.602
				c-1.98,4.764-7.464,7.029-12.229,5.051c-2.865-1.191-7.895-1.195-10.761-0.012c-4.769,1.969-10.252-0.311-12.221-5.076
				c-1.184-2.867-4.736-6.426-7.603-7.617c-3.635-1.51-5.944-5.176-5.752-9.117c0.054-1.072,0.291-2.117,0.702-3.111
				c0.483-1.156,0.791-2.738,0.876-4.449c0.119-2.365-0.207-4.723-0.865-6.312C119.767,174.166,119.533,172.816,119.598,171.434z"/>
		</g>
	</g>
</g>
<g id="Layer_3">
	<text transform="matrix(1 0 0 1 22.5 47.5)" fill="#E14B33" font-family="'MyriadPro-Bold'" font-size="24">DEED OF LAND</text>
</g>
</svg>
