<?xml version="1.0" encoding="utf-8"?>
<!-- Generator: Adobe Illustrator 16.0.0, SVG Export Plug-In . SVG Version: 6.00 Build 0)  -->
<!DOCTYPE svg PUBLIC "-//W3C//DTD SVG 1.1//EN" "http://www.w3.org/Graphics/SVG/1.1/DTD/svg11.dtd">
<svg version="1.1" xmlns="http://www.w3.org/2000/svg" xmlns:xlink="http://www.w3.org/1999/xlink" x="0px" y="0px" width="64px"
	 height="64px" viewBox="0 0 64 64" enable-background="new 0 0 64 64" xml:space="preserve">
<g id="Layer_1">
	<g id="decryption">
		<g display="none">
			<g display="inline">
				<path fill="#EFE6FF" d="M44,30H26v-6c0-3.309,2.691-6,6-6c3.309,0,8.635,5.419,6,12c-0.372,0.928,3.956,1,4,0
					c0.255-5.831-4.486-16-10-16c-5.514,0-10,4.486-10,10v6h-2c-1.104,0-2,0.896-2,2v12c0,1.104,0.896,2,2,2h24c1.104,0,2-0.896,2-2
					V32C46,30.896,45.104,30,44,30z M34,39.223V42h-4v-2.777c-0.609-0.55-1-1.338-1-2.223c0-1.657,1.343-3,3-3s3,1.343,3,3
					C35,37.886,34.609,38.673,34,39.223z"/>
			</g>
		</g>
		
			<linearGradient id="SVGID_1_" gradientUnits="userSpaceOnUse" x1="308.8779" y1="-178.8779" x2="347.1225" y2="-217.1225" gradientTransform="matrix(1 0 0 -1 -296 -166)">
			<stop  offset="0" style="stop-color:#E68CBC"/>
			<stop  offset="1" style="stop-color:#8366B3"/>
		</linearGradient>
		<path fill="url(#SVGID_1_)" d="M45.998,7.756c4.247,2.459,7.771,6.008,10.23,10.256l-3.446,1.99
			c-2.107-3.642-5.142-6.676-8.783-8.784L45.998,7.756z M56,32c0,4.373-1.176,8.468-3.219,11.999l3.464,2
			C58.629,41.88,60,37.102,60,32H56z M8,32c0-4.372,1.175-8.468,3.218-11.998l-3.464-2C5.371,22.121,4,26.899,4,32l0,0H8L8,32z
			 M20.001,11.218C23.532,9.175,27.627,8,32,8V4c-5.101,0-9.879,1.371-13.999,3.754L20.001,11.218z M20.002,52.782
			c-3.642-2.107-6.676-5.142-8.783-8.783l-3.446,1.989c2.457,4.248,5.983,7.797,10.23,10.256L20.002,52.782z M43.998,52.781
			C40.468,54.825,36.372,56,32,56v4c5.102,0,9.879-1.371,13.998-3.754L43.998,52.781z"/>
	</g>
</g>
<g id="Layer_2">
	<path fill="#EFE6FF" d="M43.491,25.635c-0.281-0.2-0.616-0.304-0.956-0.304c-0.157,0-0.316,0.023-0.471,0.068
		c-0.592,0.175-1.227,0.332-1.896,0.473c0.025-1.927,0.047-4.125,0.018-4.578c-0.252-3.907-3.621-7.223-7.671-7.549
		c-0.253-0.021-0.507-0.032-0.755-0.035c-2.208-0.023-4.156,0.667-5.792,2.05c-1.623,1.373-2.689,3.396-2.852,5.412
		c-0.034,0.414-0.034,2.725-0.03,4.693c-0.659-0.139-1.284-0.294-1.867-0.466c-0.154-0.045-0.313-0.068-0.471-0.068
		c-0.34,0-0.675,0.104-0.955,0.304c-0.41,0.292-0.652,0.753-0.652,1.244v17.708c0,0.854,0.72,1.548,1.607,1.548h21.787
		c0.888,0,1.606-0.693,1.606-1.548V26.879C44.142,26.388,43.9,25.926,43.491,25.635z M26.694,26.419
		c0.029-2.496,0.164-5.897,0.731-6.822c0.905-1.474,2.395-2.34,4.088-2.376c0.06-0.001,0.12-0.001,0.179-0.001
		c1.716,0.018,3.22,0.867,4.125,2.33c0.612,0.985,0.749,4.267,0.751,6.871c-1.559,0.161-3.22,0.246-4.928,0.246
		C29.927,26.667,28.259,26.583,26.694,26.419z"/>
	<path fill-rule="evenodd" clip-rule="evenodd" fill="#FFFFFF" d="M34.232,34.449c0-1.378-1.16-2.495-2.591-2.495
		c-1.43,0-2.59,1.117-2.59,2.495c0,0.829,0.42,1.562,1.066,2.017l-0.67,2.729h4.387l-0.669-2.729
		C33.812,36.012,34.232,35.278,34.232,34.449z"/>
</g>
</svg>
