<?xml version="1.0" encoding="utf-8"?>
<!-- Generator: Adobe Illustrator 15.0.0, SVG Export Plug-In . SVG Version: 6.00 Build 0)  -->
<!DOCTYPE svg PUBLIC "-//W3C//DTD SVG 1.1//EN" "http://www.w3.org/Graphics/SVG/1.1/DTD/svg11.dtd">
<svg version="1.1" id="Layer_1" xmlns="http://www.w3.org/2000/svg" xmlns:xlink="http://www.w3.org/1999/xlink" x="0px" y="0px"
	 width="64px" height="64px" viewBox="0 0 64 64" style="enable-background:new 0 0 64 64;" xml:space="preserve">
<style type="text/css">
<![CDATA[
	.st0{fill:#EFE6FF;}
	.st1{fill:url(#SVGID_1_);}
]]>
</style>
<g id="tumbler">
	<g>
		<g>
			<linearGradient id="SVGID_1_" gradientUnits="userSpaceOnUse" x1="19.4058" y1="19.5952" x2="54.7162" y2="54.9057">
				<stop  offset="0" style="stop-color:#E68CBC"/>
				<stop  offset="1" style="stop-color:#8366B3"/>
			</linearGradient>
			<path class="st1" d="M55.427,30.82l-7-5.5c-0.451-0.355-1.067-0.419-1.582-0.169C46.328,25.402,46,25.926,46,26.5V29h-6.18
				c-0.531-4.505-2.272-8.429-5.039-11.629c3.294-1.778,7.213-2.784,11.219-3.176V16.5c0,0.574,0.328,1.098,0.845,1.349
				C47.053,17.95,47.276,18,47.5,18c0.33,0,0.657-0.109,0.927-0.32l7-5.5C55.789,11.895,56,11.46,56,11s-0.211-0.895-0.573-1.18
				l-7-5.5c-0.451-0.355-1.067-0.419-1.582-0.169C46.328,4.402,46,4.926,46,5.5v2.665C31.288,9.356,21.575,17.185,20.18,29H10v6
				h10.18c0.532,4.505,2.272,8.43,5.039,11.629C20.831,48.997,15.333,50,10,50v6c16.94,0,28.303-8.144,29.82-21H46v2.5
				c0,0.574,0.328,1.098,0.845,1.35C47.053,38.95,47.276,39,47.5,39c0.33,0,0.657-0.109,0.927-0.32l7-5.5
				C55.789,32.895,56,32.461,56,32C56,31.54,55.789,31.105,55.427,30.82z M30.013,42.948C27.538,40.232,26,36.647,26,32
				c0-4.641,1.52-8.234,3.987-10.949C32.462,23.768,34,27.352,34,32C34,36.641,32.48,40.234,30.013,42.948z M55.427,51.82l-7-5.5
				c-0.451-0.355-1.067-0.419-1.582-0.17C46.328,46.402,46,46.926,46,47.5v11c0,0.574,0.328,1.098,0.845,1.35
				C47.053,59.95,47.276,60,47.5,60c0.33,0,0.657-0.109,0.927-0.32l7-5.5C55.789,53.895,56,53.461,56,53S55.789,52.105,55.427,51.82
				z"/>
		</g>
	</g>
	<path class="st0" d="M46,55.842L46,55.842c-9.104-0.737-16.292-4.021-20.781-9.213c1.814-0.979,3.438-2.193,4.781-3.667
		c3.782,4.149,9.787,6.238,16,6.846V55.842z M30,21.038c1.343-1.474,2.967-2.688,4.781-3.667C29.652,11.439,21.005,8,10,8v6
		C17.539,14,25.409,16,30,21.038z"/>
</g>
</svg>
