<?xml version="1.0" encoding="utf-8"?>
<!-- Generator: Adobe Illustrator 15.0.0, SVG Export Plug-In . SVG Version: 6.00 Build 0)  -->
<!DOCTYPE svg PUBLIC "-//W3C//DTD SVG 1.1//EN" "http://www.w3.org/Graphics/SVG/1.1/DTD/svg11.dtd">
<svg version="1.1" id="Layer_1" xmlns="http://www.w3.org/2000/svg" xmlns:xlink="http://www.w3.org/1999/xlink" x="0px" y="0px"
	 width="64px" height="64px" viewBox="0 0 64 64" style="enable-background:new 0 0 64 64;" xml:space="preserve">
<style type="text/css">
<![CDATA[
	.st0{fill:#EFE6FF;}
	.st1{fill:url(#SVGID_1_);}
]]>
</style>
<g id="wallet">
	<linearGradient id="SVGID_1_" gradientUnits="userSpaceOnUse" x1="14.3389" y1="21.4468" x2="52.4467" y2="59.5546">
		<stop  offset="0" style="stop-color:#E68CBC"/>
		<stop  offset="1" style="stop-color:#8366B3"/>
	</linearGradient>
	<path class="st1" d="M15,24c-3.86,0-7,2.691-7,6v20c0,3.309,3.14,6,7,6h41V32H15c-1.598,0-3-0.935-3-2s1.402-2,3-2h5.25
		c0,0,1-5,5.75-5s6,5,6,5h22v-4H15z"/>
	<path class="st0" d="M42,4c-4.418,0-8,3.582-8,8s3.582,8,8,8c4.417,0,8-3.582,8-8S46.417,4,42,4z M42,16c-2.208,0-4-1.792-4-4
		s1.792-4,4-4s4,1.792,4,4S44.208,16,42,16z"/>
	<path class="st0" d="M26,20c-4.418,0-8,3.582-8,8h4c0-2.208,1.792-4,4-4s4,1.792,4,4h4C34,23.582,30.418,20,26,20z"/>
</g>
</svg>
